<svg xmlns="http://www.w3.org/2000/svg" version="1.1" width="408" height="269" viewBox="0 0 408 269">
<path d="M0 0 C134.64 0 269.28 0 408 0 C408 88.77 408 177.54 408 269 C273.36 269 138.72 269 0 269 C0 180.23 0 91.46 0 0 Z " fill="#FEFEFE" transform="translate(0,0)"/>
<path d="M0 0 C4.931222 0.43510782 7.54881403 2.54881403 11 6 C11.70007883 7.98855075 12.36408528 9.99001072 13 12 C13.90678755 13.73436775 14.82435914 15.46312065 15.75 17.1875 C19.61285799 25.31086313 21.20078698 33.93228838 22.99511719 42.70581055 C23.22875977 43.84574463 23.46240234 44.98567871 23.703125 46.16015625 C23.90583008 47.18761963 24.10853516 48.21508301 24.31738281 49.27368164 C24.94589708 51.78391726 25.84213083 53.70887729 27 56 C26.79844435 58.75459392 26.42056364 60.42527476 24.78515625 62.66015625 C22.24960444 64.56320717 20.73094037 64.27494301 17.625 63.875 C14.03174753 63.12620951 12.49847209 62.75461392 10.44921875 59.65234375 C9.67708565 57.72333768 8.9411675 55.77952049 8.23828125 53.82421875 C6.25433186 49.29931209 2.81986183 46.9598118 -1 44 C-5.61043603 39.49201811 -5.61043603 39.49201811 -7.27734375 37.38671875 C-9.75162048 35.39495403 -11.60931501 35.56648564 -14.75 35.5625 C-15.75546875 35.54316406 -16.7609375 35.52382812 -17.796875 35.50390625 C-26.57653337 36.86368261 -33.93405206 44.24074472 -39.47119141 50.80712891 C-43.82164412 57.04727044 -45.94461052 64.71982057 -48.13134766 71.93798828 C-49.08806756 74.20905525 -50.24475845 75.3080104 -52 77 C-52.33 77.99 -52.66 78.98 -53 80 C-52.39631592 80.17813232 -51.79263184 80.35626465 -51.1706543 80.53979492 C-45.01808791 82.36855177 -38.89711375 84.26870583 -32.8125 86.3125 C-31.96236328 86.58255859 -31.11222656 86.85261719 -30.23632812 87.13085938 C-24.57974523 89.04841914 -19.64470422 91.10248338 -16 96 C-13.92350514 100.37695059 -12.47906463 104.87337673 -11.0625 109.5 C-10.66482422 110.71042969 -10.26714844 111.92085938 -9.85742188 113.16796875 C-5.6565043 126.3130086 -5.6565043 126.3130086 -8 131 C-8.22622081 132.70363822 -8.40888473 134.41328701 -8.5625 136.125 C-8.64628906 137.03507813 -8.73007812 137.94515625 -8.81640625 138.8828125 C-8.87699219 139.58148438 -8.93757813 140.28015625 -9 141 C-10.9921875 139.7421875 -10.9921875 139.7421875 -13 138 C-13.06758981 135.90471589 -13.11207922 133.80559828 -13.02734375 131.7109375 C-12.92068027 121.13601521 -15.35306149 107.44686847 -22.6875 99.375 C-28.18635732 95.32958515 -36.0248456 95.19328004 -42.60009766 94.34960938 C-46.76706087 93.74258076 -50.88103947 92.8694205 -55 92 C-54.69296143 92.69448242 -54.38592285 93.38896484 -54.06958008 94.10449219 C-52.64925687 97.31909036 -51.23087107 100.53454004 -49.8125 103.75 C-49.08836914 105.38775391 -49.08836914 105.38775391 -48.34960938 107.05859375 C-46.01189344 112.36160038 -43.72786761 117.66871403 -41.578125 123.05078125 C-38.90335232 129.50705572 -35.50592873 135.4396638 -31.9375 141.4375 C-31.32583984 142.48615234 -30.71417969 143.53480469 -30.08398438 144.61523438 C-24.98021235 153.70175361 -24.98021235 153.70175361 -17.3125 160.5 C-14.66997452 162.27862292 -14.11129856 162.66610432 -13.0625 165.8125 C-13.041875 166.534375 -13.02125 167.25625 -13 168 C-15.64 168 -18.28 168 -21 168 C-21 166.35 -21 164.7 -21 163 C-21.70125 162.835 -22.4025 162.67 -23.125 162.5 C-29.56247589 159.14131693 -33.28527523 151.1568495 -36.9375 145.0625 C-37.39350586 144.30960693 -37.84951172 143.55671387 -38.31933594 142.78100586 C-41.16085261 138.08139338 -43.97868026 133.36753773 -46.80078125 128.65625 C-47.45506104 127.5643335 -48.10934082 126.47241699 -48.78344727 125.34741211 C-50.06064726 123.21398865 -51.33598364 121.079448 -52.60913086 118.94360352 C-54.3948233 115.95542458 -56.19362399 112.9757161 -58 110 C-58.60013916 109.00427979 -59.20027832 108.00855957 -59.81860352 106.98266602 C-64.2441652 99.80098661 -69.55864233 91.67121136 -78.2734375 89.41015625 C-81.21212043 89.3594893 -83.99703608 89.99945708 -86.87890625 90.52734375 C-95.64539034 91.85493396 -104.53428999 90.97045894 -113.3125 90.125 C-114.14797363 90.04660889 -114.98344727 89.96821777 -115.84423828 89.88745117 C-121.06910477 89.34585549 -125.91831871 88.31728009 -131 87 C-133.22416292 86.65367705 -135.45371517 86.3400709 -137.6875 86.0625 C-146.27822821 84.88518393 -154.69928512 83.24524375 -162.875 80.3125 C-169.49427864 78.03787516 -174.57724224 78.92427329 -180.984375 81.34375 C-183 82 -183 82 -186 82 C-185.67 82.99 -185.34 83.98 -185 85 C-184.34 85.33 -183.68 85.66 -183 86 C-183.14168137 87.43791516 -183.28851043 88.8753237 -183.4375 90.3125 C-183.55931641 91.51326172 -183.55931641 91.51326172 -183.68359375 92.73828125 C-184.32106281 97.2950045 -185.81718411 98.86822575 -189.40551758 101.61621094 C-190.01419678 102.07286133 -190.62287598 102.52951172 -191.25 103 C-196.21058964 106.80199098 -201.06767952 110.68159444 -205.8125 114.75 C-212.03629679 120.07156643 -218.44542926 125.09502056 -225 130 C-223.84209189 137.8461236 -221.87319762 145.37356932 -219.67700195 152.97998047 C-218 158.81471943 -218 158.81471943 -218 161 C-217.11248047 161.14695313 -217.11248047 161.14695313 -216.20703125 161.296875 C-211.12957861 162.25769801 -207.82486256 163.2985201 -204 167 C-204.33 168.32 -204.66 169.64 -205 171 C-210.96773231 171.47362955 -215.8039656 171.31885602 -220.99609375 168.11328125 C-225.52413635 163.33809403 -226.51696234 156.23343566 -228 150 C-228.36936032 148.55781291 -228.7417184 147.11639001 -229.1171875 145.67578125 C-230.11914733 141.79346608 -231.06226415 137.89836041 -232 134 C-232.18385254 133.34 -232.36770508 132.68 -232.55712891 132 C-234.86986618 123.55312813 -234.86986618 123.55312813 -234 119 C-231.35511004 115.55756689 -228.25017536 112.68506712 -225.0625 109.75 C-223.38269651 108.16571225 -221.70671936 106.57735466 -220.03515625 104.984375 C-219.2862915 104.29053711 -218.53742676 103.59669922 -217.76586914 102.88183594 C-215.77536291 101.02369998 -215.77536291 101.02369998 -215 98 C-220.73469677 99.15814723 -224.78064022 100.76921389 -229.4375 104.375 C-230.64985285 105.28413955 -231.86345246 106.19161829 -233.078125 107.09765625 C-233.71169922 107.57348145 -234.34527344 108.04930664 -234.99804688 108.53955078 C-237.06146557 110.04483988 -239.16559055 111.463777 -241.296875 112.87109375 C-250.88009008 119.24745761 -258.03972078 125.87294172 -265 135 C-276.91602435 150.5357001 -276.91602435 150.5357001 -287 153 C-288.99899413 153.06342285 -291.00155182 153.07877095 -293 153 C-292.375 150.625 -292.375 150.625 -291 148 C-289.00945124 147.30562253 -287.00744615 146.64389782 -285 146 C-279.08648809 142.03785836 -275.38233263 136.63426164 -271.5625 130.75 C-270.431238 129.05278267 -269.2971412 127.35745129 -268.16015625 125.6640625 C-267.61891113 124.85743164 -267.07766602 124.05080078 -266.52001953 123.21972656 C-260.55734204 114.51226371 -253.57851793 107.19458982 -245.5 100.4375 C-244.94441406 99.96892578 -244.38882813 99.50035156 -243.81640625 99.01757812 C-243.26855469 98.55673828 -242.72070312 98.09589844 -242.15625 97.62109375 C-241.62435059 97.17008301 -241.09245117 96.71907227 -240.54443359 96.25439453 C-239.15157499 95.12310975 -237.67649427 94.09492853 -236.1953125 93.08203125 C-233.2564545 90.29482251 -233.01373047 88.21864532 -232.375 84.25 C-232.26148193 83.59966797 -232.14796387 82.94933594 -232.03100586 82.27929688 C-231.66789067 80.1889513 -231.33215047 78.09547164 -231 76 C-230.65090962 73.85579635 -230.29477821 71.713524 -229.92236328 69.57324219 C-229.58045521 67.60344346 -229.26031954 65.62990206 -228.94140625 63.65625 C-227.55640087 58.27714199 -225.13403059 53.85729975 -221.1875 49.875 C-218.64620571 47.23795993 -218.64620571 47.23795993 -219.36328125 44.3203125 C-219.57339844 43.55460937 -219.78351563 42.78890625 -220 42 C-220.58700684 42.11972168 -221.17401367 42.23944336 -221.77880859 42.36279297 C-226.39923748 43.29700769 -231.02195333 44.18768 -235.6640625 45.0078125 C-246.98752467 47.0890338 -256.8223754 49.60246204 -266.85546875 55.328125 C-269.69486316 56.83776575 -271.83894753 57.59519479 -275 58 C-277.95555804 50.33299888 -280.57200914 43.27449001 -281 35 C-266.06689725 30.02229908 -240.74590073 30.91555761 -225.6875 35.0625 C-217.27042082 37.20243538 -209.67813191 35.50010339 -201.375 33.5 C-191.71573346 31.19126058 -183.52751105 30.80674078 -173.6875 31.9375 C-172.47223633 32.06801758 -172.47223633 32.06801758 -171.23242188 32.20117188 C-165.25352444 32.87323778 -165.25352444 32.87323778 -163 34 C-132.24965035 35.99742992 -99.20437924 30.66659747 -70.09423828 20.69775391 C-68.58828431 20.19600333 -67.0688268 19.73413553 -65.54248047 19.29833984 C-64.73311035 19.05937988 -63.92374023 18.82041992 -63.08984375 18.57421875 C-62.35499756 18.36756592 -61.62015137 18.16091309 -60.86303711 17.94799805 C-58.82581598 17.14974621 -58.82581598 17.14974621 -58.06274414 15.03100586 C-56.55717242 12.15371407 -54.95141729 11.91541553 -51.90625 10.9296875 C-50.359375 10.42115234 -50.359375 10.42115234 -48.78125 9.90234375 C-47.6984375 9.56332031 -46.615625 9.22429687 -45.5 8.875 C-44.448125 8.52824219 -43.39625 8.18148437 -42.3125 7.82421875 C-27.9819628 3.19517146 -14.06221941 -0.1104676 0 7 C0 4.69 0 2.38 0 0 Z " fill="#040304" transform="translate(318,56)"/>
</svg>
